<svg id="Layer_5" enable-background="new 0 0 64 64" height="512" viewBox="0 0 64 64" width="512" xmlns="http://www.w3.org/2000/svg" xmlns:xlink="http://www.w3.org/1999/xlink"><linearGradient id="SVGID_1_" gradientUnits="userSpaceOnUse" x1="32" x2="32" y1="63" y2="1"><stop offset="0" stop-color="#9f2fff"/><stop offset="1" stop-color="#0bb1d3"/></linearGradient><path d="m59 51v-9.101c2.279-.465 4-2.484 4-4.899 0-4.259-2.992-7.905-7.08-8.793-.303-1.499-1.451-2.683-2.92-3.065v-12.142h3c1.103 0 2-.897 2-2v-1h1c1.654 0 3-1.346 3-3s-1.346-3-3-3h-1v-1c0-1.103-.897-2-2-2h-8c-1.103 0-2 .897-2 2v1h-16c0-1.654-1.346-3-3-3h-12c-1.654 0-3 1.346-3 3v11h-4.535l-4.465 6.697v32.328c-1.207.914-2 2.348-2 3.975 0 2.757 2.243 5 5 5h52c2.757 0 5-2.243 5-5s-2.243-5-5-5h-17v-12h-2v-19.303l-4.465-6.697h-4.535v-5h16v1c0 1.103.897 2 2 2h3v12.142c-1.469.382-2.617 1.566-2.92 3.065-4.088.888-7.08 4.534-7.08 8.793 0 2.414 1.721 4.434 4 4.899v9.101zm-31-42h-14v-2h14zm-13-6h12c.551 0 1 .449 1 1v1h-14v-1c0-.551.449-1 1-1zm-12 55c0-1.654 1.346-3 3-3h4.026c-.635.838-1.026 1.87-1.026 3s.391 2.162 1.026 3h-4.026c-1.654 0-3-1.346-3-3zm12-15h2v2h-2zm4 4v-4h2v10h-10v-10h2v4zm34 11c0 1.654-1.346 3-3 3s-3-1.346-3-3 1.346-3 3-3 3 1.346 3 3zm-6.974 3h-4.051c.634-.838 1.025-1.87 1.025-3s-.391-2.162-1.026-3h4.051c-.634.838-1.025 1.87-1.025 3s.391 2.162 1.026 3zm-5.026-3c0 1.654-1.346 3-3 3s-3-1.346-3-3 1.346-3 3-3 3 1.346 3 3zm-6.974 3h-4.051c.634-.838 1.025-1.87 1.025-3s-.391-2.162-1.026-3h4.051c-.634.838-1.025 1.87-1.025 3s.391 2.162 1.026 3zm-5.026-3c0 1.654-1.346 3-3 3s-3-1.346-3-3 1.346-3 3-3 3 1.346 3 3zm-18 0c0-1.654 1.346-3 3-3s3 1.346 3 3-1.346 3-3 3-3-1.346-3-3zm6.974-3h4.051c-.634.838-1.025 1.87-1.025 3s.391 2.162 1.026 3h-4.051c.634-.838 1.025-1.87 1.025-3s-.391-2.162-1.026-3zm43.026 3c0 1.654-1.346 3-3 3h-4.026c.635-.838 1.026-1.87 1.026-3s-.391-2.162-1.026-3h4.026c1.654 0 3 1.346 3 3zm-32-5v-10h2v4h6v-4h2v10zm4-10h2v2h-2zm-6-2v12h-4v-12h-14v12h-3c-.342 0-.677.035-1 .101v-30.101h32v18zm9.132-20h-30.264l2.667-4h24.93zm-22.132-6v-4h14v4zm16-7v-2h16v2zm29-2c.551 0 1 .449 1 1s-.449 1-1 1h-1v-2zm-11-3h8l.001 8h-8.001zm9 46h-10v-10h2v4h6v-4h2zm-6-10h2v2h-2zm4.784-8.763c3.028.795 5.216 3.552 5.216 6.763 0 1.302-.839 2.402-2 2.816v-2.816h-6v-4.142c1.318-.343 2.363-1.336 2.784-2.621zm-3.784-3.237c1.103 0 2 .897 2 2s-.897 2-2 2-2-.897-2-2 .897-2 2-2zm-9 10c0-3.211 2.188-5.967 5.216-6.763.422 1.285 1.466 2.279 2.784 2.621v4.142h-6v2.816c-1.161-.414-2-1.514-2-2.816zm9-33c-1.654 0-3 1.346-3 3s1.346 3 3 3 3-1.346 3-3-1.346-3-3-3zm0 4c-.551 0-1-.449-1-1s.449-1 1-1 1 .449 1 1-.449 1-1 1zm-45 31h12v-14h-12zm2-12h8v10h-8zm15 4c1.654 0 3-1.346 3-3s-1.346-3-3-3-3 1.346-3 3 1.346 3 3 3zm0-4c.551 0 1 .449 1 1s-.449 1-1 1-1-.449-1-1 .449-1 1-1zm8 4c1.654 0 3-1.346 3-3s-1.346-3-3-3-3 1.346-3 3 1.346 3 3 3zm0-4c.551 0 1 .449 1 1s-.449 1-1 1-1-.449-1-1 .449-1 1-1zm-11 6h14v2h-14zm0 4h2v2h-2zm4 0h6v2h-6zm8 0h2v2h-2z" fill="url(#SVGID_1_)"/></svg>